HIERARCHY
ROOT Hips
{
	OFFSET	0.00	0.00	0.00
	CHANNELS 6 Xposition Yposition Zposition Zrotation Xrotation Yrotation
	JOINT LeftUpLeg
	{
		OFFSET	 0.126116	-0.014019	-0.065224
		CHANNELS 3 Zrotation Xrotation Yrotation
		JOINT LeftLeg
		{
			OFFSET	 0.000000	 0.000000	 0.569914
			CHANNELS 3 Zrotation Xrotation Yrotation
			JOINT LeftFoot
			{
				OFFSET	 0.000000	 0.000000	 0.544423
				CHANNELS 3 Zrotation Xrotation Yrotation
				JOINT LeftToeBase
				{
					OFFSET	 0.000000	 0.000000	 0.207117
					CHANNELS 3 Zrotation Xrotation Yrotation
					End Site
					{
						OFFSET	 0.000000	 0.000000	 0.207117
					}
				}
			}
		}
	}
	JOINT RightUpLeg
	{
		OFFSET	-0.124023	-0.008373	-0.065224
		CHANNELS 3 Zrotation Xrotation Yrotation
		JOINT RightLeg
		{
			OFFSET	 0.000000	 0.000000	 0.570047
			CHANNELS 3 Zrotation Xrotation Yrotation
			JOINT RightFoot
			{
				OFFSET	 0.000000	 0.000000	 0.544354
				CHANNELS 3 Zrotation Xrotation Yrotation
				JOINT RightToeBase
				{
					OFFSET	 0.000000	 0.000000	 0.207540
					CHANNELS 3 Zrotation Xrotation Yrotation
					End Site
					{
						OFFSET	 0.000000	 0.000000	 0.207540
					}
				}
			}
		}
	}
	JOINT Spine
	{
		OFFSET	 0.000184	-0.007763	 0.117403
		CHANNELS 3 Zrotation Xrotation Yrotation
		JOINT Spine1
		{
			OFFSET	 0.000000	 0.000000	 0.137269
			CHANNELS 3 Zrotation Xrotation Yrotation
			JOINT Spine2
			{
				OFFSET	 0.000000	 0.000000	 0.156879
				CHANNELS 3 Zrotation Xrotation Yrotation
				JOINT LeftShoulder
				{
					OFFSET	 0.080501	-0.002496	 0.160144
					CHANNELS 3 Zrotation Xrotation Yrotation
					JOINT LeftArm
					{
						OFFSET	 0.000000	 0.000000	 0.164363
						CHANNELS 3 Zrotation Xrotation Yrotation
						JOINT LeftForeArm
						{
							OFFSET	 0.000000	 0.000000	 0.364576
							CHANNELS 3 Zrotation Xrotation Yrotation
							JOINT LeftHand
							{
								OFFSET	 0.000000	 0.000000	 0.360812
								CHANNELS 3 Zrotation Xrotation Yrotation
								JOINT LeftHandIndex1
								{
									OFFSET	 0.000000	 0.000000	 0.086006
									CHANNELS 3 Zrotation Xrotation Yrotation
									JOINT LeftHandIndex2
									{
										OFFSET	 0.000000	 0.000000	 0.047237
										CHANNELS 3 Zrotation Xrotation Yrotation
										JOINT LeftHandIndex3
										{
											OFFSET	-0.004284	-0.000551	 0.038165
											CHANNELS 3 Zrotation Xrotation Yrotation
											End Site
											{
												OFFSET	-0.004284	-0.000551	 0.038165
											}
										}
									}
								}
							}
						}
					}
				}
				JOINT Neck
				{
					OFFSET	 0.000000	 0.000000	 0.176489
					CHANNELS 3 Zrotation Xrotation Yrotation
					JOINT Head
					{
						OFFSET	 0.000000	-0.001747	 0.077940
						CHANNELS 3 Zrotation Xrotation Yrotation
						End Site
						{
							OFFSET	 0.000000	-0.001747	 0.077940
						}
					}
				}
				JOINT RightShoulder
				{
					OFFSET	-0.080363	 0.000306	 0.159706
					CHANNELS 3 Zrotation Xrotation Yrotation
					JOINT RightArm
					{
						OFFSET	 0.000000	 0.000000	 0.164196
						CHANNELS 3 Zrotation Xrotation Yrotation
						JOINT RightForeArm
						{
							OFFSET	 0.000000	 0.000000	 0.365611
							CHANNELS 3 Zrotation Xrotation Yrotation
							JOINT RightHand
							{
								OFFSET	 0.000000	 0.000000	 0.360648
								CHANNELS 3 Zrotation Xrotation Yrotation
								JOINT RightHandIndex1
								{
									OFFSET	 0.000000	 0.000000	 0.069977
									CHANNELS 3 Zrotation Xrotation Yrotation
									JOINT RightHandIndex2
									{
										OFFSET	 0.000000	 0.000000	 0.052305
										CHANNELS 3 Zrotation Xrotation Yrotation
										JOINT RightHandIndex3
										{
											OFFSET	 0.009002	-0.000782	 0.042196
											CHANNELS 3 Zrotation Xrotation Yrotation
											End Site
											{
												OFFSET	 0.009002	-0.000782	 0.042196
											}
										}
									}
								}
							}
						}
					}
				}
			}
		}
	}
}
MOTION
Frames:    9
Frame Time: 0.03333334
-0.724093	-0.027968	 1.255035	 168.683700	-8.430565	 3.026945	 3.866455	 0.600074	 174.561300	-2.091183	-33.468750	-1.962162	-63.541610	 78.253150	 53.442360	-2.385833	 28.452760	 0.000004	-28.765710	-3.345912	-168.703600	 10.048150	-30.959920	 5.324485	 21.202120	 78.847890	-24.197370	 2.384659	 28.388700	-0.000001	 2.673621	 5.581013	-19.411820	-0.807624	 16.126520	-5.111558	 26.243340	-8.109539	 21.619530	-91.776210	 78.527360	-180.000000	-11.359980	 41.207960	-23.659420	-32.974780	 18.558290	-53.321380	-38.450870	-36.057660	-22.275040	-4.130354	 21.526190	 0.991307	-5.167926	 0.731697	 3.519349	-1.378229	 35.397820	-2.634230	 14.634340	 5.714519	-2.883291	 12.487280	-14.792690	-2.240275	 89.782100	 78.203830	 180.000000	-63.441950	 7.644606	 77.927140	 9.126944	 2.022317	 145.095000	 24.906490	 38.854770	 15.479200	 5.716295	 19.173350	-3.684826	 5.027458	 0.246833	-9.377971	-2.350882	 35.473990	 5.254307
-0.724277	-0.028888	 1.254918	 168.266100	-8.740930	 3.323823	 3.672907	 0.905588	 174.536700	-1.919134	-33.413690	-1.864313	-62.574210	 78.188320	 52.263260	-2.385833	 28.452760	 0.000004	-29.161560	-3.153477	-168.613700	 10.195940	-30.699490	 5.361606	 19.709610	 78.558530	-22.941280	 2.384659	 28.388700	-0.000001	 4.253163	 6.026618	-20.479130	-0.488501	 16.391180	-5.105719	 26.513290	-9.306297	 23.073110	-91.776120	 78.527400	 180.000000	-14.441830	 39.000180	-23.786220	-32.552480	 19.386300	-55.355060	-39.140020	-36.075440	-22.694580	-4.130354	 21.526190	 0.991307	-5.167926	 0.731697	 3.519349	-1.378229	 35.397820	-2.634230	 14.844160	 5.150747	-3.707416	 12.257730	-15.226470	-3.646255	 89.782120	 78.203870	 180.000000	-63.786140	 6.199747	 79.526570	 9.702026	 1.637318	 144.087200	 20.874470	 37.906340	 17.055100	 5.716295	 19.173350	-3.684826	 5.027458	 0.246833	-9.377971	-2.350882	 35.473990	 5.254307
-0.723658	-0.029693	 1.254470	 167.997100	-8.851140	 3.431625	 3.346847	 0.956607	 174.776600	-1.775724	-33.372300	-1.783224	-62.060720	 78.363580	 51.571050	-2.385833	 28.452760	 0.000004	-29.496530	-3.343591	-168.441400	 10.349700	-30.669970	 5.437386	 18.938260	 78.309360	-22.321080	 2.384659	 28.388700	-0.000001	 5.446077	 5.868507	-20.759290	-0.142193	 16.847800	-4.890640	 26.691840	-10.203340	 23.361070	-91.776200	 78.527400	-180.000000	-18.044260	 37.435940	-24.336270	-32.034810	 19.997800	-57.236230	-39.867900	-36.208240	-23.216440	-4.130354	 21.526190	 0.991307	-5.167926	 0.731697	 3.519349	-1.378229	 35.397820	-2.634230	 14.960670	 5.193186	-4.080712	 12.152310	-15.977490	-3.724181	 89.782040	 78.203870	-179.999900	-63.251250	 4.551661	 80.889300	 10.241080	 1.247285	 143.156800	 17.364280	 36.535030	 18.386760	 5.716295	 19.173350	-3.684826	 5.027458	 0.246833	-9.377971	-2.350882	 35.473990	 5.254307
-0.723031	-0.030441	 1.254084	 167.727600	-8.953176	 3.487787	 2.991613	 1.053401	 175.027000	-1.630454	-33.272360	-1.698622	-61.535570	 78.512620	 50.880550	-2.385833	 28.452760	 0.000004	-29.837670	-3.546071	-168.260000	 10.509740	-30.683270	 5.523282	 18.257070	 78.140350	-21.773160	 2.384659	 28.388700	-0.000001	 6.715508	 5.637494	-20.971410	 0.302024	 17.288520	-4.747532	 26.849840	-11.050600	 23.605020	-91.776230	 78.527350	-180.000000	-21.611480	 36.098480	-25.731290	-31.717960	 20.439960	-58.460440	-40.624320	-36.334160	-23.748820	-4.130354	 21.526190	 0.991307	-5.167926	 0.731697	 3.519349	-1.378229	 35.397820	-2.634230	 15.068210	 5.302435	-4.432104	 12.058320	-16.800360	-3.714764	 89.782170	 78.203900	 179.999900	-62.513550	 2.888537	 82.289520	 10.811030	 0.804965	 142.141900	 13.882930	 35.018870	 19.511860	 5.716295	 19.173350	-3.684826	 5.027458	 0.246833	-9.377971	-2.350882	 35.473990	 5.254307
-0.722546	-0.030885	 1.253850	 167.537400	-9.008377	 3.388222	 2.724823	 1.197757	 175.265100	-1.536402	-33.105550	-1.639607	-60.962220	 78.582870	 50.209320	-2.385833	 28.452760	 0.000004	-30.040780	-3.748975	-168.079100	 10.627110	-30.808640	 5.605207	 18.038700	 78.190860	-21.621180	 2.384659	 28.388700	-0.000001	 7.662749	 5.382176	-20.991490	 0.717809	 17.564150	-4.696559	 26.916650	-11.551290	 23.683870	-91.776250	 78.527400	-179.999900	-24.085630	 35.501520	-27.151090	-31.544020	 20.675880	-59.117420	-41.151160	-36.396180	-24.086110	-4.130354	 21.526190	 0.991307	-5.167926	 0.731697	 3.519349	-1.378229	 35.397820	-2.634230	 15.111680	 5.526651	-4.624856	 12.028690	-17.504680	-3.570127	 89.782140	 78.203890	 180.000000	-61.668650	 1.635271	 83.239130	 11.299960	 0.396571	 141.383700	 11.265550	 33.812540	 20.352640	 5.716295	 19.173350	-3.684826	 5.027458	 0.246833	-9.377971	-2.350882	 35.473990	 5.254307
-0.721911	-0.031430	 1.253641	 167.274100	-9.089475	 3.237763	 2.335887	 1.456271	 175.541400	-1.403877	-32.827500	-1.555413	-60.296580	 78.611160	 49.430490	-2.385833	 28.452760	 0.000004	-30.329190	-3.991575	-167.862400	 10.794590	-31.021250	 5.728478	 17.711410	 78.352240	-21.366410	 2.384659	 28.388700	-0.000001	 9.025639	 5.002462	-21.009350	 1.389572	 17.888810	-4.736330	 26.987400	-12.173100	 23.835660	-91.776170	 78.527380	 180.000000	-27.188080	 34.933280	-29.596060	-31.338040	 20.965260	-59.901400	-41.839080	-36.453690	-24.500930	-4.130354	 21.526190	 0.991307	-5.167926	 0.731697	 3.519349	-1.378229	 35.397820	-2.634230	 15.162320	 5.799449	-4.880942	 11.986330	-18.440150	-3.412090	 89.782040	 78.203890	-180.000000	-60.443690	 0.024733	 84.551970	 11.971240	-0.201752	 140.318300	 7.863524	 32.130170	 21.184280	 5.716295	 19.173350	-3.684826	 5.027458	 0.246833	-9.377971	-2.350882	 35.473990	 5.254307
-0.721806	-0.031809	 1.253657	 167.004500	-9.189507	 3.096814	 1.940315	 1.775391	 175.811200	-1.264601	-32.549930	-1.468667	-59.673860	 78.598220	 48.688270	-2.385833	 28.452760	 0.000004	-30.600750	-4.126656	-167.631700	 10.950300	-31.122340	 5.827881	 17.139570	 78.465230	-20.874550	 2.384659	 28.388700	-0.000001	 10.390370	 4.746409	-21.144560	 2.060766	 18.136800	-4.881860	 27.053870	-12.709460	 24.147140	-91.776250	 78.527380	-179.999900	-29.634480	 34.509320	-32.580120	-31.427460	 21.020110	-59.787360	-42.284200	-36.399720	-24.654720	-4.130354	 21.526190	 0.991307	-5.167926	 0.731697	 3.519349	-1.378229	 35.397820	-2.634230	 15.156840	 5.877171	-5.078834	 11.925190	-19.169060	-3.472016	 89.782110	 78.203890	 180.000000	-59.274130	-1.443889	 85.806680	 12.686210	-0.890903	 139.154800	 4.486471	 30.702660	 22.077440	 5.716295	 19.173350	-3.684826	 5.027458	 0.246833	-9.377971	-2.350882	 35.473990	 5.254307
-0.722470	-0.031866	 1.253903	 166.729000	-9.326828	 3.020547	 1.458469	 2.199172	 176.084000	-1.102253	-32.318250	-1.372436	-59.938780	 78.713690	 48.786220	-2.385833	 28.452760	 0.000004	-30.940480	-4.051992	-167.351400	 11.088970	-30.984160	 5.878199	 16.722960	 78.453170	-20.579140	 2.384659	 28.388700	-0.000001	 11.815710	 4.615194	-21.444670	 2.790243	 18.345540	-5.209320	 27.109710	-13.164460	 24.506160	-91.776150	 78.527400	 180.000000	-31.562740	 34.320340	-36.049650	-31.732740	 20.908620	-59.031090	-42.761680	-36.375670	-24.821930	-4.130354	 21.526190	 0.991307	-5.167926	 0.731697	 3.519349	-1.378229	 35.397820	-2.634230	 15.105110	 5.802314	-5.193568	 11.835100	-19.708670	-3.564920	 89.782040	 78.203890	-179.999900	-58.180840	-3.027658	 87.015870	 13.393900	-1.644932	 137.729100	 0.927943	 29.368300	 22.969030	 5.716295	 19.173350	-3.684826	 5.027458	 0.246833	-9.377971	-2.350882	 35.473990	 5.254307
-0.723581	-0.031606	 1.254285	 166.489600	-9.503215	 3.054353	 0.880150	 2.687898	 176.281900	-0.916623	-32.164490	-1.267647	-61.540150	 78.964520	 50.192640	-2.385833	 28.452760	 0.000004	-31.350410	-3.769488	-167.104100	 11.206930	-30.681000	 5.888622	 16.562770	 78.346600	-20.554790	 2.384659	 28.388700	-0.000001	 13.140560	 4.561706	-21.843560	 3.577388	 18.433650	-5.734007	 27.096550	-13.391030	 24.779830	-91.776220	 78.527380	-180.000000	-32.904130	 34.553680	-39.294120	-31.930730	 20.781810	-58.478010	-43.235190	-36.415750	-24.995450	-4.130354	 21.526190	 0.991307	-5.167926	 0.731697	 3.519349	-1.378229	 35.397820	-2.634230	 14.969880	 5.437555	-5.128007	 11.703910	-19.793980	-3.707284	 89.782100	 78.203890	 180.000000	-57.159170	-4.525442	 88.091650	 14.008180	-2.381117	 136.242400	-2.292208	 28.092860	 23.677850	 5.716295	 19.173350	-3.684826	 5.027458	 0.246833	-9.377971	-2.350882	 35.473990	 5.254307
